<svg id="Layer_1" data-name="Layer 1" xmlns="http://www.w3.org/2000/svg" viewBox="0 0 873.4 384.88"><defs><style>.cls-1{fill:#7b13d3;}</style></defs><path class="cls-1" d="M0,0C30,2.47,59.9,6.32,89.66,10.64c42.9,6.22,85.6,14,127.7,24.36,39.86,9.79,81.83,20.33,118,40.36,63,34.93,75.72,107.93,75.72,174.41V384.88C124,237.92,0,0,0,0Z"/><path class="cls-1" d="M873.4,0c-30,2.47-59.89,6.32-89.65,10.64-42.9,6.22-85.6,14-127.71,24.36-39.85,9.79-81.83,20.33-118,40.36-63,34.93-75.72,107.93-75.72,174.41V384.88C749.4,237.92,873.4,0,873.4,0Z"/></svg>